<svg xmlns="http://www.w3.org/2000/svg" viewBox="0 0 128 128">
  <defs><linearGradient id="brass" x1="0" y1="0" x2="1" y2="1"><stop stop-color="#d7b86c"/><stop offset="1" stop-color="#79633d"/></linearGradient><filter id="shadow"><feGaussianBlur stdDeviation="2"/></filter></defs>
  <ellipse cx="64" cy="108" rx="39" ry="8" fill="#222a29" opacity=".22" filter="url(#shadow)"/>
  <path d="M35 91c-17 5-20-13-8-20 7-4 17-2 23 5" fill="none" stroke="#27313a" stroke-width="8" stroke-linecap="round"/>
  <path d="M38 58 26 37c-3-7 7-13 15-5l12 13M89 51l16-16c6-6 14 1 9 9L99 63" fill="#e7ddc7" stroke="#202b2e" stroke-width="6" stroke-linejoin="round"/>
  <path d="M35 59c8-24 51-28 66 2 15 30-8 50-39 48-28-2-39-25-27-50Z" fill="#39464e" stroke="#1f292d" stroke-width="7"/>
  <path d="M47 62c12-10 35-13 47 4l-7 29-39 2-12-20Z" fill="#66727a" opacity=".7"/>
  <circle cx="47" cy="74" r="9" fill="url(#brass)" stroke="#20292c" stroke-width="5"/><circle cx="88" cy="74" r="9" fill="url(#brass)" stroke="#20292c" stroke-width="5"/>
  <circle cx="47" cy="74" r="3" fill="#152126"/><circle cx="88" cy="74" r="3" fill="#152126"/>
  <path d="m67 81 8 6-8 5-8-5Z" fill="#d6b66b" stroke="#20292c" stroke-width="3"/>
  <path d="M30 102c14 6 62 7 78-2M42 49c7 4 13 1 18-8M75 42c5 8 12 11 20 8" fill="none" stroke="#172125" stroke-width="4" stroke-linecap="round"/>
  <path d="M58 29h19l5 14-7 8H60l-8-8Z" fill="url(#brass)" stroke="#263033" stroke-width="4"/>
  <circle cx="67" cy="40" r="4" fill="#263033"/>
</svg>
